<svg xmlns="http://www.w3.org/2000/svg" width="139" height="52" viewBox="0 0 139 52">
  <g fill="none">
    <g fill="#FFC107" transform="translate(98 26)">
      <path d="M13.9095188 12.2617767C13.9095188 14.6743641 11.9632242 17.0736955 9.48494241 16.9278798 7.0326112 16.7820641 5.59235318 14.6345962 5.59235318 12.2617767L5.59235318.066279874.103802379.066279874.103802379 12.2617767C.103802379 13.9452855.415209517 15.6287943 1.12885087 17.1532314 2.38745472 19.8441943 4.83978593 21.7397987 7.69435136 22.3363175 9.26436235 22.6544609 10.8343733 22.601437 12.3524831 22.0579421 13.8186917 21.5277031 15.1162215 20.6262968 16.2580477 19.5658188L18.0745893 22.1374779 19.4110449 22.1374779 19.4110449.066279874 13.9095188.066279874 13.9095188 12.2617767zM39.6654842 12.7787597C38.6404357 10.1010528 35.9804997 8.55010374 33.2297367 8.55010374L27.5076305 8.55010374C25.7429901 8.55010374 25.7300148 5.70006916 27.5076305 5.70006916L38.6663863 5.70006916 38.6663863.0927918236 27.5076305.0927918236C25.8986936.0927918236 24.3157073.66279874 23.0830541 1.72327672 20.8902288 3.60562514 20.0727851 6.84008299 21.0848583 9.58406978 22.0969315 12.2882886 24.6660404 14.1441251 27.5076305 14.1441251L33.2297367 14.1441251C33.8914768 14.1441251 34.6051182 14.3164528 34.6051182 15.1118113 34.6051182 15.8806578 33.9823039 16.5169446 33.2297367 16.5169446L20.6436982 16.5169446 20.6436982 22.1374779 33.2297367 22.1374779C34.8386735 22.1374779 36.4086845 21.554215 37.6413378 20.493737 39.7563113 18.6511565 40.6905327 15.4829786 39.6654842 12.7787597z"/>
    </g>
    <g fill="#FFF" transform="translate(41 24)">
      <path d="M23.2284237 18.6814286C23.2284237 20.7257143 22.2800596 22.7057143 20.6691399 23.9914286 19.0192462 25.3157143 16.8107272 25.8171429 14.7321211 25.3414286 13.5888877 25.0842857 12.5365933 24.5442857 11.6531857 23.76 10.0942311 25.1614286 7.93767723 25.7528571 5.87206237 25.4185714 3.84542137 25.0842857 2.02664099 23.8114286 1.0133205 22.0371429.428712518 21.0085714.116921596 19.8514286.116921596 18.6685714L.116921596 7.21285714 4.75481156 7.21285714 4.75481156 18.6685714C4.75481156 19.9285714 5.8330885 20.97 7.10623477 20.9314286 8.34040717 20.9057143 9.36671895 19.89 9.36671895 18.6685714L9.36671895 7.21285714 13.9786263 7.21285714 13.9786263 18.6685714C13.9786263 19.9285714 15.0828859 20.97 16.3430408 20.9314286 17.5642219 20.9057143 18.603525 19.89 18.603525 18.6685714L18.603525 7.21285714 23.2154324 7.21285714 23.2154324 18.6814286 23.2284237 18.6814286zM31.9325869 20.7771429C33.9852105 21.42 36.349625 20.1471429 37.1940588 18.2571429L40.584785 21.6385714C38.7140395 24.2742857 35.5441651 25.7142857 32.3093343 25.4957143 29.2823641 25.29 26.5152197 23.5671429 25.0082302 20.9571429 23.4752582 18.2957143 23.3063714 14.85 24.50157 12.0342857 25.6837772 9.27 28.1651133 7.25142857 31.1531096 6.68571429 34.7516965 6.00428571 38.5061789 7.45714286 40.6107676 10.4271429L31.9325869 20.7771429zM34.3099927 11.3271429C32.5301862 10.6842857 30.3346585 11.52 29.3083467 13.0371429 28.7757039 13.8214286 28.5028868 14.7342857 28.4509216 15.6728571 28.4119478 16.5471429 28.4639129 17.6271429 28.918608 18.4114286L34.3099927 11.3271429zM59.2402752 16.0328571C59.2402752 19.9157143 57.0577387 23.5414286 53.3162477 24.93 49.6267218 26.3057143 45.2746401 25.2128571 42.7803128 22.1657143 41.3642623 20.43 40.675724 18.2442857 40.675724 16.0328571L40.675724.0385714286 45.3266053.0385714286 45.3266053 8.43428571C47.0284641 6.28714286 50.4061991 6.15857143 52.83557 6.94285714 55.2389584 7.71428571 57.1876516 9.46285714 58.2789199 11.7128571 58.9414756 13.0628571 59.2402752 14.5285714 59.2402752 16.0328571zM54.5764027 16.0328571C54.5764027 14.0914286 53.4851344 12.2271429 51.6403715 11.4685714 49.7436434 10.6971429 47.6390546 11.3914286 46.4178735 12.9728571 45.1837011 14.5671429 45.0148144 16.8042857 46.0021523 18.5528571 46.9505164 20.25 48.9381835 21.2271429 50.8868767 20.8157143 53.1213784 20.3528571 54.5764027 18.2314286 54.5764027 16.0328571z"/>
    </g>
    <path fill="#FFF" d="M19,14 C8.512,14 0,22.512 0,33 C0,43.488 8.512,52 19,52 C29.488,52 38,43.488 38,33 C38,22.512 29.5006667,14 19,14 Z M22.8,38.7 C17.556,38.7 13.3,34.444 13.3,29.2 C13.3,23.956 17.556,19.7 22.8,19.7 C28.044,19.7 32.3,23.956 32.3,29.2 C32.3,34.444 28.0566667,38.7 22.8,38.7 Z"/>
    <circle cx="42.5" cy="9.5" r="9.5" fill="#FFC107"/>
  </g>
</svg>
